<svg id="Layer_1" data-name="Layer 1" xmlns="http://www.w3.org/2000/svg" viewBox="0 0 1053.54 1053.31"><defs><style>.cls-1{fill:#fff;}</style></defs><title>24-7</title><path class="cls-1" d="M73.23,567c2.68-19.62,4.88-39.32,8.1-58.85C115.61,300.87,282.74,127.25,488.14,85.3q217-44.31,403.05,75.82c1.94,1.26,4,2.27,7.36,4.13l-4.89-51,61.17-6.45c5.51,53.71,10.94,106.61,16.47,160.5L810.9,284.73c-2.11-20.45-4.14-40.09-6.31-61.09l57.71-6.46C718.37,113.58,493.21,98.32,321.93,227.46,223.59,301.61,162.41,399.85,141.8,521.53,121.23,643,146.27,755.6,213.86,859.61L163,893.83a509.8,509.8,0,0,1-54.9-105.23A515.42,515.42,0,0,1,74.93,640.83c-.2-2.68-1.12-5.3-1.7-8ZM633,1126.66a90.4,90.4,0,0,1,10-1.83,491.3,491.3,0,0,0,112.82-21.49c209.88-66.71,352.65-246.21,369.41-465.9,8.94-117.31-19.91-225.52-83.44-324.51-1.39-2.17-3.17-4.08-5.09-6.53l-50.32,34c137.35,208.17,88.12,474.7-94.26,621.52-180.51,145.32-415.81,122-553.86,20.81l57.29-6.3c-2.15-20.87-4.2-40.72-6.31-61.14L228.82,931.73c5.52,53.9,10.92,106.63,16.44,160.41l61.2-6.42c-1.68-17.64-3.22-33.71-4.79-50.17,2,.42,2.7.4,3.24.72,1.77,1,3.46,2.22,5.18,3.35,61.56,40.34,128.47,67.21,201.15,79.21,19.22,3.17,38.63,5.25,57.94,7.83ZM322.84,544.74c19.54,1.59,28.86,16.59,20,34.16-4.48,8.91-11.68,16.85-18.95,23.88C300.77,625.17,277,646.89,253.53,669c-2.39,2.26-5.7,5.15-5.86,7.91-.66,11.47-.28,23-.28,34.71H411.78V664.13H331.22c14-13,26.09-23.72,37.56-35,8.27-8.15,16.67-16.42,23.44-25.78,29.65-41,12.85-89-35.86-102.75a119.56,119.56,0,0,0-75.71,3.17c-18.38,6.87-33.28,18.42-44.11,36.58l44,24.7C291.48,550.17,305.39,543.33,322.84,544.74ZM536,500.37c-6.61-.18-10.49,2.1-14.28,7.45C496,544.13,471,581.05,443.44,616c-14,17.77-10.94,35.94-11,56.27H544.54v39.56h57.94v-40h31V624.09H602.17V588.72H545.73v35H503.4l85.77-123.18C569.92,500.52,553,500.83,536,500.37ZM879.73,712.59c6.83.17,10.19-1.91,12.94-8.43,21.82-51.73,43.72-103.43,66.47-154.74,7.13-16.08,3.81-31.95,4.78-48.14h-175v78.77h50.61V548.61h55.27L823.63,712.43C843.58,712.43,861.66,712.13,879.73,712.59ZM679.12,742.48c7.53.36,10.62-2.42,13-9.37q46.11-132.75,92.76-265.29c1.05-3,1.76-6.11,2.93-10.19-14.89,0-28.24.48-41.54-.19-7.24-.37-10,2.44-12.28,8.91q-46.15,132.72-92.74,265.29c-1.09,3.13-1.86,6.36-3.1,10.66C652.52,742.3,665.85,741.83,679.12,742.48Z" transform="translate(-73.23 -73.34)"/></svg>