<svg id="Layer_1" data-name="Layer 1" xmlns="http://www.w3.org/2000/svg" viewBox="0 0 1039.51 1040.76"><title>call</title><path d="M657.93,795.17c22-22.23,43-43.72,64.31-65,15.82-15.84,34.28-27.26,56.61-31.19,34.72-6.1,63.7,5.67,88.12,29.88,29.69,29.42,59,59.19,88.54,88.8,9.65,9.7,19.38,19.33,29,29.09,42,42.75,43.21,100.16,2.8,144.56-10,11-21.11,21.09-31.55,31.76-12.16,12.45-24.32,24.91-36.17,37.65-34.92,37.53-78.36,54.3-129,52.52-56.26-2-109.18-18.09-160.32-40.43-153.94-67.23-280.87-169-384.18-301-60.53-77.32-110.17-160.68-142.14-254C89.16,474.92,80,431.09,82.14,385.41c1.83-39.26,15.15-74,42.41-102.48,25.26-26.44,50.91-52.55,77.23-77.93,42.54-41,100.87-41.28,143.15-.25q60.79,59,119.77,119.83c27.8,28.6,39.12,62.49,26.41,101.95-5.36,16.65-15.07,30.79-27.3,43.13q-30.48,30.73-61.36,61.08c-3.52,3.45-3.78,5.92-1.7,10.12,12.88,26,28.72,50,46.63,72.74,48.09,60.95,103,114.77,168.19,157.36C628.85,779.63,643.13,786.77,657.93,795.17ZM145.13,400.45c1.12,11.62,1.67,23.34,3.45,34.86,6.5,42.15,20.85,82,39.12,120.19C282,752.61,426.45,901.06,622,999.1c49.81,25,101.53,44.47,157.65,50,38.91,3.86,72.21-5.88,98.09-37,10.15-12.2,22.09-22.92,33.22-34.3,10.79-11,22.23-21.48,32.23-33.18,13.86-16.2,13.2-33-.53-49.24-2.25-2.66-4.71-5.14-7.17-7.6Q878.82,831.07,822,774.34a64.39,64.39,0,0,0-8.49-7.25c-11.1-7.71-22.84-8.47-34.29-1.32a99.23,99.23,0,0,0-16.65,13.66c-22.84,22.55-45.37,45.43-68.17,68-15.45,15.29-35,19.5-53.36,10.34-19.12-9.52-38.2-19.38-56.22-30.78C523,787.84,469.72,738.67,422,683.33c-33.93-39.36-64.39-81-85.15-129.05-10.94-25.32-6.54-43.41,13.51-62.46q34.89-33.17,68.62-67.54c18.62-19,18.22-36.16.09-55.54-.85-.91-1.72-1.8-2.6-2.68q-47.58-48-95.18-95.91c-7.9-7.93-15.82-15.91-24.39-23.07-13.83-11.53-28.39-12-43.26-1.88a77,77,0,0,0-10.78,9.15c-20.84,20.7-41,42-62.47,62.11C155.89,339.41,144,366.91,145.13,400.45Zm975.57,109.6C1083.92,295.18,916,121.13,702.48,76.69c-9-1.87-18.13-4.1-27.2-4.09-16.17,0-29.1,13.43-30.12,29.44-1.08,17,10.26,30.3,28.08,33.89Q935.61,188.83,1035,437.41c11,27.47,16,57.31,23.41,86.17,4.2,16.42,18.34,26.5,35.78,24.5,15.6-1.78,27.34-15.32,27.18-32.62C1121.23,514.49,1121.08,512.25,1120.7,510.05ZM941.43,516Q922.05,412.75,846.65,339.6C798.5,293,741.32,263.71,675.21,252.4c-18.79-3.21-34.76,8.18-37.59,25.53-3,18.69,8.21,33.75,27.76,37.29,46.54,8.41,88,27.81,123.86,58.58q73,62.52,90,157.25c3.1,17,17.72,27.52,34.71,25.82,16.23-1.63,28.41-15.36,28.38-33.75C942.21,521.88,942,518.9,941.43,516Z" transform="translate(-81.83 -72.6)"/></svg>