<svg id="Layer_1" data-name="Layer 1" xmlns="http://www.w3.org/2000/svg" viewBox="0 0 1031.49 637.75"><defs><style>.cls-1{fill:#fff;}</style></defs><title>exterior-water-line</title><path class="cls-1" d="M87.62,855.59V825.35h59v-182H87.74V612.45c17.68,0,35.48-.26,53.25.15,6.09.14,8.76-1.84,11.17-7.52,10.47-24.64,29.66-37.6,56.32-38.21,25-.58,46.44,14.85,56.72,39.38.84,2,1.85,3.92,2.94,6.22q97.29,0,194.37-.17c2.83,0,6.05-2,8.43-3.87,12-9.51,24-19.07,35.52-29.15a18.13,18.13,0,0,0,5.48-10.61,124.35,124.35,0,0,0,.19-21.92c-1.28-21.71,4.8-39.79,25.28-51.29C525.79,464.54,514.6,434.1,502.65,404c-1.36-3.44-6.58-6.13-10.59-7.63-26.07-9.8-41.6-33.19-40.31-61.5,1.17-25.78,20.07-48.39,46.16-54.76a65.63,65.63,0,0,1,15.21-1.55q90-.15,180,0c31.59.09,56.43,20.72,61.35,50.4,5,30.06-12.37,57.69-42.45,68.45-3.54,1.27-7.64,4.58-8.95,7.93-11.53,29.59-22.48,59.41-34,90.16,23.44,12.2,27.47,33.65,25.22,57-1.55,16.08,1.86,28.17,17.72,35.37a40.26,40.26,0,0,1,14.32,11.76c8.79,11.28,19.82,13.35,33.52,13.18,56.35-.73,112.7-.4,169.06-.18,6.9,0,10.63-1.25,13.76-8.57,10.34-24.13,29.68-37.14,55.85-37s45.37,13.1,55.59,37.4c2.86,6.79,6.34,8.34,13,8.18,17.11-.41,34.23-.14,52-.14v30.06h-58.86V824.84h58.66v30.75c-16.14,0-32.44.33-48.72-.14-8.38-.24-13.21,1.2-17.27,10.31-10.28,23.06-29.38,35-54.88,34.85S954,888.12,943.43,865.17c-3.5-7.63-7.29-9.89-15.39-9.84q-88.92.54-177.84,0c-7.48,0-12.8,2-18.21,7.38a181.59,181.59,0,0,1-256.66.55c-5.68-5.64-11.13-8-19.08-7.95q-88.36.45-176.74,0c-8.24,0-12.63,1.8-16.37,10-10.46,23-29.2,35.18-54.7,35.22s-44.28-12.12-54.84-35.06c-3.75-8.13-7.92-10.45-16.25-10.14C121,856,104.6,855.59,87.62,855.59Zm849.26-212.7h-14c-61.11,0-122.21-.14-183.31.15-9.58,0-16.39-3-22.88-10.14-61.84-67.9-164.49-68.07-226.24-.35-6.79,7.44-13.87,10.55-23.84,10.5-61.1-.32-122.21-.16-183.31-.16H270.1V825.24h12.65c61.84,0,123.68.14,185.51-.15,9.19,0,15.66,2.83,21.83,9.76,60.22,67.65,165.9,67.83,226.22.35,6.45-7.22,13.18-10.17,22.77-10.12,61.84.32,123.68.16,185.51.16h12.29ZM968,734.17c0,34.38-.12,68.76,0,103.14.1,19.77,12.56,33.06,30.41,33.06,17.35,0,30.32-12.92,30.41-32,.3-69.49.36-139-.22-208.47-.06-7.44-3.49-15.81-7.82-22-7.14-10.26-20.79-12.94-32.6-8.64-12.53,4.56-20,15.08-20.14,29.66C967.83,664,968,699.06,968,734.17Zm-729.16-.33c0-34.38-.06-68.76,0-103.14,0-14.12-5.42-25-18.54-30.87C199.11,590.4,178,606,177.86,631.29c-.27,41.33-.08,82.66-.08,124,0,27.43-.21,54.86.09,82.29.2,18.13,10.56,30.41,26.41,32.43,19.33,2.46,34.28-11.07,34.43-31.93C239,803.33,238.78,768.58,238.79,733.84ZM603.64,369.05v.08c28.5,0,57,.05,85.5-.06,4.7,0,9.61-.05,14.08-1.3,14-3.91,22.4-16.84,21.21-31.83-1.11-14-11.68-26.39-26-26.53-63.55-.58-127.11-.27-190.67-.05-3.45,0-7.15,1.6-10.29,3.29-11.94,6.41-17.78,20.19-14.65,33.65A29.39,29.39,0,0,0,511.57,369C542.25,369.28,573,369.05,603.64,369.05Zm68.62,31.1h-138c11,29.51,21.59,58.12,32.63,86.55.8,2.07,5.08,3.9,7.78,3.95,19,.34,38,.39,57,0,2.91-.07,7.46-2.34,8.39-4.71C650.92,457.81,661.32,429.5,672.26,400.15Zm-8,161.7c0-9.32.31-17-.08-24.55-.5-9.86-6-15.9-15.9-16-29.93-.33-59.86-.26-89.79,0-8.18.06-14.47,4.36-15.37,12.77-.94,8.77-.21,17.72-.21,27.69C583.62,548.33,623.07,548.35,664.25,561.85Z" transform="translate(-87.62 -278.4)"/></svg>