<svg id="Layer_1" data-name="Layer 1" xmlns="http://www.w3.org/2000/svg" viewBox="0 0 756.37 1327.57"><defs><style>.cls-1{fill:#0a1335;}</style></defs><title>fb</title><path class="cls-1" d="M1028.82,74.19c32.43,23,43.49,54,41.33,93.72-2.81,51.66-.07,103.6-1,155.4-.78,45.91-26,69.63-71.23,71.19-31.05,1.08-62.37,2.51-93.21-.24-42.16-3.75-61.32,12.72-59.34,55.11,1,22,.19,44.12.19,73.08,47.62,0,90.18-.67,132.72.16,59.6,1.17,81.48,22.56,82.28,81.06q1.22,88.07-.07,176.16c-.83,55.89-22.35,77.49-78.91,79.06-42.89,1.18-85.84.23-136.23.23v60c0,133,.55,266-.33,398.95-.43,64.17-20.42,83-84.13,83.38q-85.5.55-171,0c-65-.36-86.79-21.36-87.13-86.89-.66-131.26-.21-262.52-.21-393.78V859.13c-39.59,0-73.65.89-107.65-.2-55.52-1.8-79.11-24.76-80.12-79.22q-1.65-88.05,0-176.15c.94-57,24.91-79.73,83.68-81,32.43-.69,64.89-.13,100.92-.13,2.58-52.13,2.4-100.1,7.77-147.45,17.37-153.29,96.66-254.75,250.41-291.81,4.42-1.07,7.94-5.91,11.88-9ZM981.13,601.94c-56.39,0-106.36-.54-156.31.18-39,.56-57.32-17.33-56.42-56.45.79-34.52-.36-69.09.32-103.62,1.79-89.34,36-123.69,126.7-126.77,30.32-1,60.71-.16,91.47-.16v-160c-61.27,0-119.62-2.47-177.69.53-112,5.78-195,76.92-217.09,187.45-8.36,41.85-9.56,85.61-9.71,128.51-.47,135.6,9.84,132-128.33,130.44-18.38-.2-36.77,0-56.39,0V780.38c39.13,0,75.05-.12,111,0,66.31.28,73.18,7.23,73.25,75.5q.21,204.68,0,409.36v53.36H768.47v-59.8c0-138.18,1-276.36-.5-414.53-.5-46.36,17.15-66.52,64.27-64.4,49.12,2.21,98.4.49,148.89.49Z" transform="translate(-314.04 -74.19)"/></svg>