<svg id="Layer_1" data-name="Layer 1" xmlns="http://www.w3.org/2000/svg" viewBox="0 0 1286.28 1286.51"><defs><style>.cls-1{fill:#fff;}</style></defs><title>instagram</title><path id="Insta" class="cls-1" d="M1383,410.72v638.19c-2.24,12.66-3.86,25.47-6.8,38-33.71,143.47-121.33,235.69-263.28,275.59-17.6,4.94-36,7.12-54,10.57H420.85c-12.72-2.25-25.5-4.19-38.15-6.79-167.46-34.35-285.45-178.15-285.77-349.19q-.54-287,.2-574a363.62,363.62,0,0,1,6.59-69.79C137.31,205.13,281.64,87,453.33,86.72Q739.67,86.27,1026,87c23.7.06,48,1.53,71,6.83,143.6,33.06,235.65,121.14,275.48,263.14C1377.37,374.46,1379.53,392.77,1383,410.72ZM212,729.82h-.59q0,140.07,0,280.14c0,28.61,3.12,56.65,12.16,84,30.82,93.1,120.84,165.54,235,164.78,187.55-1.25,375.12-.37,562.68-.31,28.19,0,55.8-3.22,82.7-12.17,93.36-31,165.5-120.82,164.75-235-1.23-187.59-.36-375.19-.31-562.79,0-28.2-3.22-55.82-12.16-82.72-31.12-93.63-121.17-165.53-235-164.78-187.56,1.24-375.13.4-562.69.28-32.08,0-63.11,4.76-93.33,16-86.83,32.17-151.46,119.72-152.85,212.44C210.86,529.65,212,629.74,212,729.82Zm528.05,331.55c-182.36.11-331.37-148.62-331.67-331C408.09,547.47,557.51,398,740.33,398.26c182.37.28,331.13,149.32,331.05,331.69S922.43,1061.26,740.07,1061.37Zm216.47-331.9c-.3-120.29-97.34-216.9-217.32-216.35s-215.75,96.59-216,216.42a216.65,216.65,0,1,0,433.3-.07Zm212.61-344.53c-.32-45.41-37.51-82.68-83.3-83.48-45.27-.8-84.25,37.72-84.49,83.49-.24,45.95,37.65,83.82,83.87,83.82S1169.48,430.73,1169.15,384.94Z" transform="translate(-96.7 -86.52)"/></svg>