<svg id="Layer_1" data-name="Layer 1" xmlns="http://www.w3.org/2000/svg" viewBox="0 0 908.09 908.07"><defs><style>.cls-1{fill:#fff;}</style></defs><title>kitchen</title><path id="kitchen_lavatory" data-name="kitchen lavatory" class="cls-1" d="M1044.14,1032.55c-6.22,15.79-17.78,21.51-34.67,21.48q-346.59-.45-693.19-.2c-2.66,0-5.33.13-8-.07-7.81-.61-12.93-5.72-13.11-12.9-.19-7.54,5.09-13.37,13.31-13.51,17.13-.3,34.27-.11,51.41-.12h40.16v-237H163.52v237h9.34q39.45,0,78.9,0c11,0,17.34,5.06,17.22,13.43s-6.42,13.13-17.52,13.14q-42.56.06-85.1,0c-18.93-.06-30.06-11.35-30.07-30.52q0-173.74,0-347.48c0-19.19,10.85-30.1,30.19-30.34,18.32-.24,36.63-.16,55-.25a13.57,13.57,0,0,0,2.68-1c.13-2.68.41-5.78.42-8.89,0-25.71-.05-51.42.05-77.12.08-19.31,10.93-30.23,30.09-30.44,8.57-.1,17.14-.14,25.71,0,17.95.33,29.31,11.58,29.43,29.51.18,25.71.05,51.41.06,77.12v11h12.68q342.6,0,685.21-.25c16.87,0,29.18,4.72,36.38,20.34Zm-263.92-6h236.9V790H780.22ZM427.85,789.76v236.89H752.57V789.76Zm324.87-27.14V672.73H427.86v89.89Zm27.43-.37h236.77V672.71H780.15ZM163.6,672.48v90H399.85v-90Zm87.89-27.69h31.23v-89.7H251.49ZM655.81,146c15.72,6.3,21.71,17.89,21.41,34.74-.67,37.51-.39,75,0,112.57a24.57,24.57,0,0,0,5.08,14.14c20.27,25,41.27,49.44,61.45,74.52,3.55,4.41,5.75,10.9,6.19,16.62.93,12,.35,24.2.26,36.32-.14,20.61-11.1,31.52-31.94,31.56q-66,.12-132.07,0-61.15,0-122.32,0c-23.21,0-31.79-10.58-34.16-33.32-3.25-31.08,5.32-55.85,27.95-77.57,15-14.43,27.43-31.69,40.43-48.14a24.86,24.86,0,0,0,5.07-14.15c.41-37.52.7-75,0-112.57-.31-16.88,5.75-28.4,21.41-34.74ZM530.56,173V292.28H649.84V173ZM472.25,380.39H708.19c-17-20.36-32.91-39.62-49.14-58.63-1.36-1.6-4.74-2.06-7.18-2.07q-61.53-.18-123.06,0c-2.66,0-6.27.75-7.81,2.55C504.91,341.05,489.15,360.13,472.25,380.39Zm-15,58.83H722.89v-31H457.21ZM377.43,146c15.88,6.91,20.9,19.28,20.71,36.14-.6,54-.21,108.05-.23,162.08,0,23.91-10.08,34.05-33.75,34.06q-97.43,0-194.86,0c-22.63,0-33-10.38-33-32.92,0-54.92.37-109.84-.23-164.75-.18-16.91,5.79-28.37,21.5-34.6ZM163.09,351.27H370.74v-178H163.09Zm881.05-184A35,35,0,0,0,1022.86,146H803c-10.79,5.32-19.64,12.41-20.19,25.55-.48,11.51-.42,23-.08,34.56.22,7.38,4.2,12.22,11.94,13,8.39.8,14-4.56,14.31-14.16.32-10.56.07-21.14.07-31.61h208v178H809.09v-9.81q0-29.25,0-58.51c0-8,.23-16-.23-23.92s-5.86-12.89-13-12.9-12.28,5-13.17,12.87a55.68,55.68,0,0,0-.18,6.2c0,26.89-.06,53.78,0,80.67.06,22,10.61,32.36,32.8,32.37,64.71,0,129.43-.3,194.13.22,16.87.14,28.43-5.75,34.7-21.49Zm0,319.17c-4,7.44-10.31,9.57-18.44,9.31-12.39-.41-24.8,0-37.21,0a17,17,0,0,0-2.91.87c0,10.08-.37,20.6.32,31,.14,2,4.28,4.06,6.88,5.55a43.32,43.32,0,0,1,20.92,46.86c-4,18.15-20.26,31.79-39.22,32.87A42.18,42.18,0,0,1,932,584.64c-7.16-20.15,1.26-41.79,20.76-51.79,4.59-2.35,6.54-4.75,6.29-9.93-.41-8.76-.11-17.55-.11-26.81H868.13c0,10.5-.37,21,.32,31.4.14,2,4.22,4.16,6.82,5.66,16.58,9.61,25.21,28.8,20.87,46.83-4.44,18.46-19.54,31.45-38.21,32.87a42.22,42.22,0,0,1-43.19-27.32c-7.59-20,.34-42.18,19.64-52.19,5.77-3,7.42-6.32,7.13-12.26-.41-8.16-.11-16.35-.11-25.5-14.65,0-28.15.06-41.66,0-11.21-.07-17.15-4.82-17-13.4.12-8.42,6.26-13.15,17.43-13.16,75.32,0,150.64.08,226-.15,7.85,0,13.57,2.56,18,8.68ZM870.46,570.09a15.91,15.91,0,0,0-15.87-15.58,16.23,16.23,0,0,0-16.05,16.4,15.94,15.94,0,0,0,16,15.44A15.62,15.62,0,0,0,870.46,570.09ZM972.3,554.48c-8.71-.14-16.44,7.56-16.31,16.23a16.13,16.13,0,0,0,15.84,15.65,15.53,15.53,0,0,0,16-15.19A15.91,15.91,0,0,0,972.3,554.48ZM221.46,879.88c-.2-8.4-5.31-13.82-12.7-14-7.77-.24-13.6,5.27-13.73,14-.27,18.84-.24,37.68,0,56.52.1,8.85,5.66,14.56,13.27,14.58s13-5.73,13.19-14.55c.19-9.41,0-18.83,0-28.25S221.68,889.29,221.46,879.88ZM898.52,293.07c-7.61.31-12.19,4.5-12.85,12s3.43,13.28,10.68,13.89a200.84,200.84,0,0,0,34.42-.13c6.85-.6,10.8-6.2,10.34-13.3-.48-7.44-4.9-11.9-12.49-12.39-5-.33-10-.07-15-.08S903.53,292.87,898.52,293.07Zm-60.08,588.2c-.13-9.65-5.14-15.4-13.16-15.45s-13.28,5.7-13.35,15.27q-.21,27.39,0,54.76c.08,9.33,5.7,15.3,13.61,15.08,7.61-.21,12.71-5.93,12.89-14.9s0-18.25,0-27.38S838.57,890.4,838.44,881.27ZM590.1,821.54q49.65,0,99.29,0c20.76,0,31.7,11,31.74,31.71q.09,55,0,109.92c0,21.17-11,32-32.43,32q-98.4,0-196.8,0c-21.89,0-32.61-10.73-32.63-32.67q0-54.51,0-109c0-20.88,10.88-31.87,31.54-31.91Q540.45,821.47,590.1,821.54Zm103.79,146.6V848.87H486.53V968.14ZM589.83,730.72a78,78,0,0,0,7.95-.05c7.63-.78,12.93-6.24,13-13.13.1-7.37-5.32-12.77-13.6-13.24-4.4-.25-8.84-.22-13.25,0-8.53.35-14,5.19-14.3,12.54-.36,7.54,5.41,13.32,14,13.93,2.05.15,4.12,0,6.18,0ZM481.26,704.25c-2.65,0-5.31-.13-7.95,0-8.24.48-13.83,5.75-13.92,13s5.52,12.92,13.64,13.42a82.44,82.44,0,0,0,15.87-.23c6.44-.87,10.73-4.81,11.41-11.6s-2.26-11.63-8.56-13.79c-3.24-1.11-7-.79-10.47-1.11Zm219.26,26.52c2.07,0,4.13.11,6.19,0,8.64-.57,14.51-6.24,14.29-13.71-.23-7.29-5.75-12.42-14.13-12.76a119.32,119.32,0,0,0-15,.16c-7.16.6-11.27,4.94-11.8,12s3.12,11.91,9.94,13.69c3.35.87,7,.61,10.51.87Zm198.7-26.45c-5.31,0-10.64-.25-15.93.06-7.67.45-12.07,5.13-12.47,12.45s4,12.9,11.32,13.47a220.46,220.46,0,0,0,32.71.07c7.36-.51,11.51-5.82,11.7-13.28.17-7-5.35-12.27-13.16-12.75-4.71-.29-9.44-.06-14.17-.06Zm-632.52,0c-7.7.35-12.18,4.91-12.73,12.2s3.7,13.1,11,13.7a205.74,205.74,0,0,0,33.58,0c7.29-.6,11.59-6.27,11-13.71-.58-7.28-5.07-11.84-12.76-12.18-5-.22-10,0-15.05,0S271.71,704.12,266.7,704.34ZM251.93,293.11c-7.61.41-12.09,4.85-12.62,12.25-.55,7.56,3.79,13.07,11,13.67a200,200,0,0,0,33.56,0c7.27-.63,11.42-6.23,10.84-13.79s-5.1-11.75-12.72-12.12c-4.71-.22-9.44,0-14.16,0C262.55,293.05,257.22,292.82,251.93,293.11ZM645.12,906.86c11.1-.05,17.25-5,17.09-13.45-.15-8.07-6.37-13.09-16.68-13.11q-55.35-.07-110.69,0c-10.31,0-16.52,5.06-16.65,13.14s5.92,13.35,16.24,13.4c18.59.1,37.19,0,55.79,0C608.52,906.87,626.82,906.93,645.12,906.86Z" transform="translate(-136.05 -145.97)"/></svg>