<svg id="Layer_1" data-name="Layer 1" xmlns="http://www.w3.org/2000/svg" viewBox="0 0 751.66 1056.68"><defs><style>.cls-1{fill:#fff;}</style></defs><title>low-cost-white</title><path class="cls-1" d="M624.62,88.05c11.65,2.58,23.4,4.76,34.92,7.8C755.85,121.29,825.73,207.14,830.77,306c5.12,100.22-53.86,192.41-146.67,227.79C673,538,669.27,543.2,670.52,554.47c1,9.11.2,18.42.2,28.9,19.06,0,37.17.18,55.27-.07,9.16-.13,17.37,1,21.23,10.77,3.7,9.36-1.57,15.6-7.68,21.69Q682.18,672.94,624.9,730.23c-2.65,2.64-6,4.6-9,6.88.41.93.81,1.87,1.22,2.8q31.7,7.33,63.39,14.66c14.72,3.39,29.42,6.92,44.2,10.07,30.15,6.44,55.63,21.12,77.25,42.92,20.81,21,41.77,41.86,66.48,66.6,2.88-4.8,4.81-9.9,8.31-13.47,7.31-7.48,16.56-7.9,23.81-.8q35.38,34.65,70.07,70c7.15,7.29,6.67,15.33.05,23.13-1.78,2.09-3.83,4-5.78,5.9Q877.36,1046.48,789.75,1134c-3.86,3.85-8.24,7.17-12.38,10.73H767.05q-28.41-27.64-56.81-55.31c-4.93-4.81-9.75-9.71-14.61-14.58-11.06-11.1-11.92-15-6.27-28.89-18.68-4.5-37.51-8.36-56-13.58Q499.74,994.56,400.85,896.81q-79.61-78.72-158.36-158.3c-33.1-33.39-19.35-86.75,25.16-98,22.15-5.62,41.23.93,57.35,17.15,40.5,40.73,81.22,81.24,121.76,121.94,2.85,2.86,4.89,6.52,7.3,9.81l2.87-2c.6-3.16,1.24-6.32,1.78-9.49,6.82-40,42.34-63.83,82-55.1,10.37,2.28,20.72,4.62,31.07,6.92l3.41-3.76c-3.34-1.75-7.36-2.82-9.92-5.36-35.18-34.87-70.12-70-105.21-104.93-6.12-6.1-11.35-12.34-7.6-21.68,3.9-9.74,12.14-10.83,21.29-10.7,17.86.25,35.73.07,55,.07,0-14.14.38-27.78-.38-41.34-.12-2.18-5.08-4.78-8.26-6-58.57-22.39-102-61.45-129.06-118C323.71,276.69,414.2,110.46,569.42,89.9c1.94-.25,3.78-1.22,5.67-1.85ZM841.1,896.48c-24.94-25.73-47.71-51.68-73.26-74.51-12.29-11-29-19.26-45.12-23.31C660.12,782.92,597,769.21,534,755.09c-20.36-4.56-37.35,5.94-42.15,24.93-4.66,18.44,6.09,35.45,26.41,41.07,27.47,7.59,55,14.85,82.55,22.26,24.53,6.59,49.13,13,73.57,19.9,10.29,2.91,14.72,11.17,12.23,20.51-2.28,8.55-10.22,13-20.31,11.22-2-.36-4-1.09-5.95-1.65-53.53-15.1-107-30.53-160.62-45.16a161.09,161.09,0,0,1-73.88-42.93c-36.27-36.68-72.9-73-109.39-109.48-6.09-6.08-11.94-12.43-18.44-18a24.18,24.18,0,0,0-29.65-1.9c-9,6-13.79,17.25-10,26.93a45.83,45.83,0,0,0,10.29,15c47.75,48.06,96.29,95.36,143.51,143.94,83.26,85.65,183.89,136.64,301.77,154.13,2.95.44,7.24-.22,9.17-2.12C762.76,974.66,802.15,935.3,841.1,896.48ZM689.8,616.39c-10.74,0-20.7,0-30.66,0-15.52-.08-21.28-5.61-21.4-21-.16-20.63-.07-41.27,0-61.9,0-16.48,2.56-19.72,18.81-24.6A198,198,0,0,0,794.21,281.27C773,171.11,663.82,100.19,555,125.89,444.27,152,377.45,265.21,409.7,373.73,430.1,442.38,475.78,487.21,544,508.85c10.13,3.21,17.92,7.38,18,19.17.12,23.38.3,46.77-.08,70.15-.21,12.26-6.59,18-19,18.18-10.85.18-21.7,0-31.71,0l89.29,89.29ZM933,941.54l-44-44L728.47,1057.84l43.78,44.28C825.75,1048.67,879.83,994.63,933,941.54Zm-498.19-622c.1-92,74.07-165.57,166.29-165.44,90.27.12,164,74.64,163.92,165.74,0,90.36-74.85,164.79-165.29,164.44C508.64,484,434.66,410,434.76,319.55Zm33-1.32c-.51,72.12,58.2,132.26,129.86,133,73.6.77,133.81-57.78,134.3-130.6.49-73.46-58.16-133.06-131.37-133.51C527.89,186.7,468.28,245.55,467.76,318.23ZM584.13,270h31.42c5.13,13.5,13.09,18.68,22.78,15.09,10.4-3.86,14-15.27,8.53-27.88-5.69-13.1-16.46-19.48-30-21.06-1.7-25.38-5-31.89-16.28-32.44-11.7-.57-15.31,5.86-18,32-24.8,6.37-32.33,16.22-32.33,42.28,0,7.21-.05,14.43,0,21.65.16,22.38,13.57,35.87,35.9,36.05,9.83.09,19.66,0,29.35,0v32.7H584.16c-5.17-13.53-13.08-18.69-22.79-15.12-10.37,3.8-14,15.18-8.57,27.88,5.63,13.18,16.66,19.25,30,21.19,1.76,25.6,5.54,32.51,17.28,32.33,11.19-.17,14.37-6.18,17-32,25-6.57,32.33-16.12,32.33-42.28,0-7.91.13-15.81,0-23.71-.41-19.79-14.12-33.6-33.82-34-10.26-.19-20.53,0-31.41,0Z" transform="translate(-224.17 -88.05)"/></svg>