<svg id="Layer_1" data-name="Layer 1" xmlns="http://www.w3.org/2000/svg" viewBox="0 0 495.37 825.75"><defs><style>.cls-1{fill:#fff;}</style></defs><title>toilets</title><path id="Toilets" class="cls-1" d="M513.07,1032.39c-7.44-4.56-9.5-11.42-9.46-19.81.2-39-.08-77.94.27-116.91.05-6.43-2.2-9.2-7.71-12-72.49-37.25-114.76-96.58-127.78-176.81-1.67-10.29-1.78-20.84-2.63-31.37-13.28-5.88-15.93-12.77-11.39-30,8.57-32.57,34.23-52.71,68-53.39,3.75-.07,7.49,0,12,0V564.56c-3.91,0-7.83.09-11.75,0-24.08-.66-40.19-15.77-42.39-39.79-.32-3.47-.32-7-.32-10.46q0-109.26.08-218.52c0-5.77-.89-9.46-6.87-12.59-15.89-8.31-23.51-27-19.54-44.7,3.72-16.6,18.43-29.61,35.74-31.5a81.62,81.62,0,0,1,8.85-.32q202.4,0,404.79,0c25.63,0,43.11,15.25,44.51,39,1,16.54-6.15,29.39-20.32,37.5-5.31,3-6.88,6-6.87,11.77q.27,110.46,0,220.93c0,7.91-.81,16.38-3.72,23.59-6.54,16.26-20,23.93-37.22,25-4.26.27-8.55,0-13.46,0v26c11.88,1.81,23.8,2.34,34.93,5.56,27.3,7.92,47,35.52,46.9,63.73,0,8.61-4.91,13.23-11.44,14.62-3.46,20.7-5.19,41.16-10.45,60.67-17.94,66.58-58.18,115.81-119.52,147.39-7.1,3.65-10,7.27-9.9,15.61.55,38.16.13,76.33.33,114.49,0,8.39-2,15.25-9.45,19.81ZM792.78,289.56H407.92c-.14,3.06-.37,5.68-.37,8.3q0,109.62,0,219.25c0,15.74,4.3,20,20.18,20q172.5,0,345,0c15.79,0,20.06-4.25,20.06-20.09q0-109.22,0-218.44ZM393.26,674.78c3.66,78.92,36.41,140.56,105.16,178.75,75,41.69,150.56,37.57,221.18-11.11,57.74-39.8,85-97.34,87.2-167.64Zm138.36,329.6H668.36v-106c-46,13.34-91.24,13.16-136.74,0Zm68.56-742.79H799.26a56.67,56.67,0,0,0,8.85-.25c6.89-1.09,11.12-5.11,11.81-12.23s-3.24-12.51-10.31-14.24a37.26,37.26,0,0,0-8.78-.72q-200.7,0-401.39,0a36.74,36.74,0,0,0-8.78.73c-7.08,1.76-11,7.28-10.26,14.27s5,11.12,11.85,12.2a58,58,0,0,0,8.85.24Zm217,385.17c-6.26-17.7-20.94-27.22-41.27-27.23q-175.77,0-351.54,0c-2.15,0-4.31,0-6.45.17-16.45,1.37-31.27,13-34.25,27.07ZM463.08,591.59h274V565.15h-274Zm61.5-233.46a52.84,52.84,0,0,1-5.63,0c-10.5-1.1-18.21.41-24.86,11.26-9.68,15.79-29.9,19.9-47.24,13-16.44-6.53-27.21-24.08-25.58-41.66a41.62,41.62,0,0,1,33.15-36.86,40.6,40.6,0,0,1,44,21c2.34,4.58,5,6,9.87,5.9,11.54-.33,23.09-.22,34.63-.07,9.88.14,15.57,5.21,15.61,13.51s-5.71,13.53-15.44,13.89C536.94,358.3,530.76,358.12,524.58,358.13ZM476,344.57a13.52,13.52,0,0,0-12.81-13.78A13.82,13.82,0,0,0,448.86,344c-.2,7.24,6.5,14,13.76,14A14,14,0,0,0,476,344.57Z" transform="translate(-352.32 -206.64)"/></svg>