<svg id="Layer_1" data-name="Layer 1" xmlns="http://www.w3.org/2000/svg" viewBox="0 0 908.21 907.46"><defs><style>.cls-1{fill:#fff;}</style></defs><title>tub-shower</title><path id="tub" class="cls-1" d="M901.18,960.64c4.91,22.4,9.64,43.75,14.27,65.13,2.66,12.33-2.49,19.15-15,19.38-14,.25-28-.13-42,.13-8.29.15-13.68-3.32-17.5-10.62-11.35-21.65-23.24-43-34.42-64.75-2.92-5.68-6.37-7.45-12.58-7.45q-194.11.25-388.22,0c-6.33,0-9.57,2.08-12.44,7.65-11,21.44-22.87,42.5-34,63.91-4.18,8-10,11.56-19,11.3-13.34-.38-26.71,0-40.06-.14s-18.45-6.75-15.68-19.58c4.62-21.38,9.34-42.74,14.07-64.34-6-2.8-12-5-17.38-8.14-17.78-10.41-27.39-26.49-32.36-46.2-18.19-72-36.84-143.88-55-215.88-1.61-6.4-3.93-9.11-10.74-8.52a174.4,174.4,0,0,1-21.93.07c-9.78-.39-14.8-5.13-15-14.83-.3-15.25-.68-30.54.14-45.76,1.56-28.56,23.53-48.9,52.94-49.3,25.72-.36,51.45-.08,77.76-.08,1.08-4.66,1.84-9,3.1-13.13,11.24-37.18,35.9-59.73,74.08-67,4.88-.93,6.84-2.1,7.35-7.43,4.15-43.25,32.75-76.47,74.06-86.62,40.51-9.94,81.41,6.63,105,42.55,1,1.56,2.05,3.13,3,4.57,46.75-11.87,81.16,12.8,91.63,52.2,51.33-.21,83.72,24.38,96.69,74.41H931.31v-26.9q0-32.43,0-64.85c0-17.37,2.9-20.22,20.55-20.59,1.57,0,3.14-.2,6.15-.41v-9.22q0-118.25,0-236.5c0-27-13.67-44.56-37.59-48.49-13.39-2.21-25.28,1.71-35.21,10.71-6.81,6.16-12.93,13.09-17.92,18.21,5.41,15.59,12.37,30,15.3,45.24,5.91,30.67-3.66,57.73-24.51,80.76-7.63,8.42-14.54,8.44-22.82.2q-57.11-56.88-114-114c-7.92-7.94-7.53-15.2.6-23,29.25-27.88,75.56-33.84,111.55-14.29,3.9,2.12,7.63,4.53,12.54,7.46,6.48-6.34,13.06-13.07,19.94-19.46,39.73-36.86,103.29-18.22,116.42,34.32,1.9,7.6,2.27,15.73,2.29,23.62q.24,116.34.1,232.68v10.69c1.62.73,2.16,1.16,2.73,1.2,23.44,1.72,23.94,2.26,23.94,26.11,0,26.38.15,52.77-.11,79.15,0,5.74,1,8.87,7.22,11,22.22,7.66,33.76,24.16,35.12,47.27.86,14.57.41,29.24.14,43.86-.19,10.69-5.21,15.34-16.17,15.62a191,191,0,0,1-20-.07c-6.79-.52-9.8,1.51-11.59,8.67C989.84,755.54,973.23,819.76,956.78,884c-1.58,6.15-3.41,12.25-4.65,18.47C946.35,931.23,930.83,951.57,901.18,960.64Zm79.26-277.46H220.17a52,52,0,0,0,.75,6.15q27.35,107,54.8,214c5.5,21.35,19.82,32.28,42.41,32.29q281.88.12,563.75,0c23,0,36.89-11.17,42.58-33.28q19.92-77.46,39.73-154.93C969.61,726.23,974.91,705.05,980.44,683.18ZM173.3,655.34h853.81V634c0-26.67-8-34.72-34.62-34.72q-392.55,0-785.11,0a86.36,86.36,0,0,0-12.37.46c-11.62,1.68-20.42,9.52-21.48,21C172.49,632,173.3,643.44,173.3,655.34Zm132.26-83.11H703.9c-1.39-4.28-2.21-8-3.72-11.32-11.9-26.47-40.09-40.43-69.32-34.45-16.27,3.33-20.83-.09-21.8-16.34-1.92-32.22-32.86-50.2-61.88-35.95-12,5.91-18.11,3.85-23.49-8-15-33.18-48.08-50.14-81.75-42s-55.16,37.8-53.78,74.5c.59,15.66-2.91,19.32-18.39,19.18C337.48,517.54,309,541.37,305.56,572.23ZM750.15,195.37l95.72,95.85c17.82-21.2,15.36-59.46-5.87-83.51A69.4,69.4,0,0,0,750.15,195.37ZM984,572.09v-85H958.53v85ZM833,962.86c9.8,18.29,18.63,35.07,27.86,51.62,1.1,2,4.29,3.62,6.65,3.84,5.93.54,12,.18,19,.18-4.22-19.1-8.24-37.23-12.31-55.64Zm-507.28,0c-4.07,18.33-8.09,36.46-12.13,54.66,22.4,3.18,22.4,3.18,32.38-15.42,1.8-3.35,3.6-6.69,5.38-10,4.94-9.33,9.87-18.67,15.43-29.19ZM677.68,377.53c.14-9.93-11.11-17-19.5-11.5a51.09,51.09,0,0,0-14.49,14.62c-5.45,8.51,1.8,19.42,11.88,19.12C663.51,399.54,677.57,385.4,677.68,377.53Zm-39.09-88.28c-1.92,2.38-.07,10.66,2.79,13.26,3.16,2.87,10,4.09,14.23,2.82A29.4,29.4,0,0,0,670,295.17c2.63-3.59,3.62-10.17,2.21-14.38C671,277,665.47,274.53,660,270,651.94,277,644.22,282.26,638.59,289.25Zm151.64,28.33c-7.35.32-20.24,15.49-20.24,23.82a13.7,13.7,0,0,0,13.4,13.31c7.86,0,21-15.53,20.67-24.35A13.41,13.41,0,0,0,790.23,317.58Zm-83.33,3.29c-8.34.42-21.61,14.52-21.42,22.77a13.24,13.24,0,0,0,13.63,12.91c8.36-.45,21.67-14.58,21.44-22.75A13.27,13.27,0,0,0,706.9,320.87Zm4.78-82.62c-7.12-.74-22.11,9.3-23.86,16.13-1.89,7.37.44,13.33,7.66,16.3,9.45,3.89,28.06-8.87,28.35-20.06C723,244.17,719.59,239.06,711.68,238.25Zm24.45,158.6c3.17,6.49,8.8,9,15.82,7,7.38-2.06,17.36-17.45,16.22-24.79s-5.85-10.81-11.89-11.14C744.15,368.06,731.42,387.21,736.13,396.85ZM749.88,278.4c-8.42.19-21,13.21-20.82,21.51a13.1,13.1,0,0,0,13.48,12.94c8.15-.24,21.26-13.72,21.05-21.64A13.44,13.44,0,0,0,749.88,278.4Z" transform="translate(-145.88 -137.86)"/></svg>