<svg id="Layer_1" data-name="Layer 1" xmlns="http://www.w3.org/2000/svg" viewBox="0 0 1259.94 1288.63"><defs><style>.cls-1{fill:#fff;}</style></defs><title>twitter</title><path id="Twitter" class="cls-1" d="M111.31,1373c24.27-28.79,48.29-57.78,72.83-86.33q204.58-238,409.36-475.76c2.73-3.16,5.27-6.48,8.4-10.35l-492-716h13.47q175.52,0,351-.19c8.49,0,13.39,2.59,18.24,9.68q154.5,225.57,309.53,450.76c2.59,3.76,5.31,7.42,9,12.61,10.35-11.85,20.2-23,29.88-34.21q185-215,369.83-430.12c5.48-6.38,10.92-8.82,19.18-8.71,32.27.43,64.56.18,100.14.18L860.92,630.06c2.48,3.7,4.93,7.44,7.46,11.12q247,359.49,494.07,719c2.79,4.06,4.92,8.57,7.36,12.87h-375c-.83-1.44-1.55-3-2.48-4.31Q824.78,1124.82,657.2,881a83.83,83.83,0,0,0-5.89-6.81c-3.25,3.56-6.13,6.57-8.85,9.73Q533.35,1010.63,424.29,1137.4,323.1,1255.15,222.06,1373ZM262.5,168.33c3.31,5.21,5.14,8.36,7.23,11.34Q655.88,732,1041.92,1284.41c4.38,6.26,8.9,8.56,16.41,8.51,49.07-.31,98.15-.14,147.23-.2,3.44,0,6.88-.55,11.62-1-3.28-5-5.48-8.44-7.84-11.82Q965.49,931.2,721.63,582.45,580.42,380.52,439,178.76c-3.17-4.52-9.21-9.92-14-10C371.76,168.07,318.51,168.33,262.5,168.33Z" transform="translate(-109.87 -84.4)"/></svg>