<svg id="Layer_1" data-name="Layer 1" xmlns="http://www.w3.org/2000/svg" viewBox="0 0 879.66 978.83"><defs><style>.cls-1{fill:#1f456b;}</style></defs><title>water-heater</title><path id="Water_heater" data-name="Water heater" class="cls-1" d="M326.6,1089.42c-10.36-5.63-13.93-14.22-13.59-26,.69-24.12.2-48.27.2-73.42-6.12,0-11.44.09-16.77,0-13.88-.27-21.29-7.48-21.41-21.27-.17-19.41,0-38.82,0-58.09-27.56-12.28-38.54-33.3-38.45-62.64.46-152.3.21-304.6.21-456.89V378.23c-6.28,0-12.18.06-18.08,0-33.22-.39-58-24.94-58.34-58-.22-24.85-.18-49.71,0-74.56.23-33.72,24.9-58.27,58.65-58.61,5.41-.06,10.82,0,17.83,0,0-7.12-.18-14,0-20.8.88-29.29,24.18-53.66,53-55.54,12.14-.79,21,5.1,23.07,15.38,2.24,11-5.56,20.91-17.75,22.66C280.6,150.83,275,157,275,171.44q0,271.94,0,543.87v6.35H925V711.53q0-268.59,0-537.18c0-19.52-6.09-25.52-25.83-25.53H473.8c-17.55,0-26.51-6.34-26.69-18.86-.18-12.78,9-19.37,27.12-19.37q212.67,0,425.34,0c40.28,0,63.64,23.2,63.64,63.25q0,210.77,0,421.52v12.32c7.37,0,14-.16,20.56,0a57.21,57.21,0,0,1,55.8,55.62c.37,13.37.28,26.76.05,40.14-.56,32-25.21,56.49-57.32,57.09-6,.11-12,0-19.09,0v31.94c0,18.48-.55,37,.12,55.43,1.07,29.33-10.78,50.38-38.36,62.67,0,18,0,36.13,0,54.26,0,18.86-6.31,25.09-25.28,25.13h-13v10.34c0,21-.52,42.07.2,63.07.4,11.78-3.25,20.36-13.58,26H861.89c-10.35-5.63-14-14.2-13.58-26,.73-20.36.2-40.76.2-61.14V990.53H810.28c0,24.64-.48,48.78.2,72.89.33,11.78-3.26,20.35-13.59,26H785.42c-10.34-5.63-14.08-14.19-13.57-26,.75-17.48.19-35,.19-52.52V990h-9c-24.78-.11-29.22-4.63-29.22-29.74,0-15.47,0-31,0-45.67-8.85-2.65-12.87,0-16.72,7.3C707,941.12,690,951.37,668.27,951.6q-68.26.71-136.55,0c-21.73-.22-38.72-10.45-48.83-29.69-4.08-7.77-8.4-9.8-16.73-7.5,0,17.28,0,34.42,0,51.56,0,17.49-6.67,24-24.42,24-4.35,0-8.7,0-13.81,0,0,25.19-.48,49.33.2,73.43.34,11.77-3.27,20.34-13.58,26H403.07c-10.36-5.62-14-14.2-13.59-26,.73-20.36.2-40.76.2-61.14V990.53H351.45c0,24.64-.48,48.78.2,72.89.34,11.78-3.26,20.35-13.58,26ZM275,761.07c0,30.46,0,60.34,0,90.21,0,17.5,6.64,24,24.46,24q95.1,0,190.19,0c16,0,21.87,5.06,24.22,20.66,1.61,10.76,8.33,17.39,19.23,17.45q66.9.32,133.79,0c10.88,0,17.62-6.72,19.23-17.46,2.33-15.59,8.17-20.62,24.22-20.64q51.61-.06,103.22,0c30,0,59.89.06,89.84,0,11.15,0,19.26-5.18,20.74-14.54,1.19-7.59.24-15.52.24-23.66-27.31,0-53.73,0-80.16,0-15.44,0-24.43-7.21-24.3-19.33s9-18.87,24.73-18.89q35.36,0,70.72,0c3,0,6.1-.28,9.17-.42V761.07Zm152.49,153H313.84v37H427.47Zm344.75,37.13H886.06v-36.9H772.22ZM236.55,225.42c-7.44,0-14.1-.45-20.67.1A18.33,18.33,0,0,0,198.67,244q-.48,38.68,0,77.38c.1,9.33,5.49,16.12,14.48,17.77,7.52,1.38,15.5.28,23.4.28ZM964,646.23v76.1c6.06,0,11.74.18,17.4,0,12.09-.45,19.55-7.78,20-19.78.27-7.31-.29-14.66.14-22C1003.47,647.12,993,644.18,964,646.23ZM509.94,571c0-25.22,6.25-42.73,15-59.54,15.78-30.24,38.13-55.48,61.34-80,7-7.4,18.33-8.73,25-1.87,32.26,33.17,64,67.24,75.82,113.69,9.19,36.24-1.77,67.79-30.83,91.3-28.42,23-60.78,26.94-94,11.56C528.27,630.36,511.7,602.21,509.94,571Zm88.89-99.65c-13.86,19.84-27.11,37.68-39,56.38-5,7.86-8.3,17.29-10.41,26.45-8,34.72,22.57,67.08,57.74,61.73,33.14-5,52.35-36.61,41.5-69.23C639.19,518.22,619.92,496.07,598.83,471.32Zm4.65-254.44c-9.68-2-20,3.44-21.7,13.85-2.42,15.24-4.89,31-3.42,46.19,2.28,23.57,9.71,46.54,2.92,70.72-2.58,9.16,5.52,17.91,15.14,19.92s20-3.51,21.71-13.9c2.44-15.24,4.75-31,3.57-46.2-1.82-23.55-11.62-46.64-2.87-68.26C619.52,227.1,613.15,218.88,603.48,216.88Zm-81.25,40.77c-9.93-1.73-18.65,3-21.66,12.77A109.26,109.26,0,0,0,497.92,326c4.24,20,7.3,39.83,2.25,60.32-2.61,10.58,4.44,19.83,14.7,22.05,9.41,2.05,20.18-3.62,21.73-13.83,2.4-15.88,4.86-32.26,3.45-48.08-2.06-23.25-10.77-46-2.73-66.92C537.49,267.09,531.26,259.22,522.23,257.65ZM702,339.4c-4-19.7-7.34-39.18-2.37-59.38,2.69-10.95-4.12-20.29-14.12-22.3-10.5-2.11-20.75,3.13-22.26,14.1-2.31,16.81-4.6,34.2-2.73,50.88,2.41,21.42,7.88,42.22,2.49,64.08-2.64,10.72,4.87,19.77,15.14,21.7,9.48,1.79,18.85-4,21.5-14.43,2.41-9.5,3.66-19.29,5.38-28.74C704,356.39,703.67,347.76,702,339.4ZM381,110.66a19.06,19.06,0,1,0,18.22,19.39A19.23,19.23,0,0,0,381,110.66ZM772,818.34A19,19,0,1,0,753,837,19.21,19.21,0,0,0,772,818.34Z" transform="translate(-160.17 -110.58)"/></svg>