<svg id="Layer_1" data-name="Layer 1" xmlns="http://www.w3.org/2000/svg" viewBox="0 0 1150.98 828.73"><defs><style>.cls-1{fill:#fff;}</style></defs><title>YT</title><path id="YT" class="cls-1" d="M1295.49,805.38c-1.51,20.43-2.23,41-4.7,61.26-4.58,37.8-7.88,76-15.85,113.08-15.62,72.77-77,125.46-151.16,135.71-87.31,12-175.15,15.8-263,17.41-92.8,1.7-185.7,2.42-278.46-.23-82.57-2.36-165.07-9-247.46-15.52-58.57-4.63-107.88-28.56-142.85-77.85-22.38-31.55-30.6-67.81-35.33-105.12-14.92-117.8-14.68-236-6.85-354.18a849.68,849.68,0,0,1,16.12-119.79C181,388.89,244,334.7,316.34,324.62c86.92-12.12,174.4-15.82,261.9-17.44,93.92-1.74,188-2.44,281.82.22,82.2,2.33,164.34,8.82,246.34,15.56,63.4,5.22,115.19,32.59,149.19,88.69,17.27,28.48,24.41,60.2,28.22,92.56,4.28,36.37,6.51,73,9.71,109.47.41,4.76,1.3,9.48,2,14.21Zm-561-412.55c-97.77,3.12-179.38,4.73-260.88,8.68-48.5,2.35-97,7.24-145.2,13.11-40.24,4.9-67.76,30.62-75.8,70.48a749.08,749.08,0,0,0-12.78,93.16A1856.27,1856.27,0,0,0,237.63,824c2.47,41.73,7.13,83.46,13.44,124.78,6.28,41.12,31.14,67.46,72.78,74.79,27.93,4.91,56.2,9.13,84.48,10.52,91.58,4.51,183.22,9.9,274.87,10.56,95,.69,190.13-2.71,285.12-6.38,48.13-1.86,96.22-7.13,144.08-13,40.9-5,68.62-29.74,75.59-70.32,7.56-44.09,13.25-88.88,14.8-133.53,2.42-69.53,2.18-139.25,0-208.8-1.24-40.58-6.89-81.2-13.18-121.38-6.52-41.56-31.71-67.93-73.79-75.25-26.84-4.67-54-8.77-81.15-10.13C929.31,400.7,823.84,396.65,734.49,392.83ZM606.67,538.29V901.71L920.74,720Z" transform="translate(-144.51 -305.64)"/></svg>